ISO-10303-21;
HEADER;
/* Generated by software containing ST-Developer
 * from STEP Tools, Inc. (www.steptools.com) 
 */

FILE_DESCRIPTION(
/* description */ (''),
/* implementation_level */ '2;1');

FILE_NAME(
/* name */ '',
/* time_stamp */ '2026-06-29T00:52:19+08:00',
/* author */ (''),
/* organization */ (''),
/* preprocessor_version */ 'ST-DEVELOPER v20.1',
/* originating_system */ 'Autodesk Translation Framework v15.8.0.0',
/* authorisation */ '');

FILE_SCHEMA (('AUTOMOTIVE_DESIGN { 1 0 10303 214 3 1 1 }'));
ENDSEC;

DATA;
#10=MECHANICAL_DESIGN_GEOMETRIC_PRESENTATION_REPRESENTATION('',(#13,#14),
#276);
#11=SHAPE_REPRESENTATION_RELATIONSHIP('SRR','None',#283,#12);
#12=ADVANCED_BREP_SHAPE_REPRESENTATION('',(#15,#16),#275);
#13=STYLED_ITEM('',(#292),#15);
#14=STYLED_ITEM('',(#292),#16);
#15=MANIFOLD_SOLID_BREP('Part-A',#159);
#16=MANIFOLD_SOLID_BREP('Part-B',#160);
#17=FACE_BOUND('',#43,.T.);
#18=FACE_BOUND('',#45,.T.);
#19=PLANE('',#177);
#20=PLANE('',#178);
#21=PLANE('',#179);
#22=PLANE('',#180);
#23=PLANE('',#181);
#24=PLANE('',#182);
#25=PLANE('',#186);
#26=PLANE('',#187);
#27=FACE_OUTER_BOUND('',#37,.T.);
#28=FACE_OUTER_BOUND('',#38,.T.);
#29=FACE_OUTER_BOUND('',#39,.T.);
#30=FACE_OUTER_BOUND('',#40,.T.);
#31=FACE_OUTER_BOUND('',#41,.T.);
#32=FACE_OUTER_BOUND('',#42,.T.);
#33=FACE_OUTER_BOUND('',#44,.T.);
#34=FACE_OUTER_BOUND('',#46,.T.);
#35=FACE_OUTER_BOUND('',#47,.T.);
#36=FACE_OUTER_BOUND('',#48,.T.);
#37=EDGE_LOOP('',(#111,#112,#113,#114));
#38=EDGE_LOOP('',(#115,#116,#117,#118));
#39=EDGE_LOOP('',(#119,#120,#121,#122));
#40=EDGE_LOOP('',(#123,#124,#125,#126));
#41=EDGE_LOOP('',(#127,#128,#129,#130));
#42=EDGE_LOOP('',(#131,#132,#133,#134));
#43=EDGE_LOOP('',(#135));
#44=EDGE_LOOP('',(#136,#137,#138,#139));
#45=EDGE_LOOP('',(#140));
#46=EDGE_LOOP('',(#141,#142,#143,#144));
#47=EDGE_LOOP('',(#145));
#48=EDGE_LOOP('',(#146));
#49=LINE('',#237,#63);
#50=LINE('',#242,#64);
#51=LINE('',#244,#65);
#52=LINE('',#246,#66);
#53=LINE('',#247,#67);
#54=LINE('',#250,#68);
#55=LINE('',#252,#69);
#56=LINE('',#253,#70);
#57=LINE('',#256,#71);
#58=LINE('',#258,#72);
#59=LINE('',#259,#73);
#60=LINE('',#261,#74);
#61=LINE('',#262,#75);
#62=LINE('',#269,#76);
#63=VECTOR('',#194,10.);
#64=VECTOR('',#199,10.);
#65=VECTOR('',#200,10.);
#66=VECTOR('',#201,10.);
#67=VECTOR('',#202,10.);
#68=VECTOR('',#205,10.);
#69=VECTOR('',#206,10.);
#70=VECTOR('',#207,10.);
#71=VECTOR('',#210,10.);
#72=VECTOR('',#211,10.);
#73=VECTOR('',#212,10.);
#74=VECTOR('',#215,10.);
#75=VECTOR('',#216,10.);
#76=VECTOR('',#225,10.);
#77=CIRCLE('',#175,10.);
#78=CIRCLE('',#176,10.);
#79=CIRCLE('',#184,10.);
#80=CIRCLE('',#185,10.);
#81=VERTEX_POINT('',#234);
#82=VERTEX_POINT('',#236);
#83=VERTEX_POINT('',#240);
#84=VERTEX_POINT('',#241);
#85=VERTEX_POINT('',#243);
#86=VERTEX_POINT('',#245);
#87=VERTEX_POINT('',#249);
#88=VERTEX_POINT('',#251);
#89=VERTEX_POINT('',#255);
#90=VERTEX_POINT('',#257);
#91=VERTEX_POINT('',#266);
#92=VERTEX_POINT('',#268);
#93=EDGE_CURVE('',#81,#81,#77,.T.);
#94=EDGE_CURVE('',#81,#82,#49,.T.);
#95=EDGE_CURVE('',#82,#82,#78,.T.);
#96=EDGE_CURVE('',#83,#84,#50,.T.);
#97=EDGE_CURVE('',#83,#85,#51,.T.);
#98=EDGE_CURVE('',#86,#85,#52,.T.);
#99=EDGE_CURVE('',#84,#86,#53,.T.);
#100=EDGE_CURVE('',#84,#87,#54,.T.);
#101=EDGE_CURVE('',#88,#86,#55,.T.);
#102=EDGE_CURVE('',#87,#88,#56,.T.);
#103=EDGE_CURVE('',#87,#89,#57,.T.);
#104=EDGE_CURVE('',#90,#88,#58,.T.);
#105=EDGE_CURVE('',#89,#90,#59,.T.);
#106=EDGE_CURVE('',#89,#83,#60,.T.);
#107=EDGE_CURVE('',#85,#90,#61,.T.);
#108=EDGE_CURVE('',#91,#91,#79,.T.);
#109=EDGE_CURVE('',#91,#92,#62,.T.);
#110=EDGE_CURVE('',#92,#92,#80,.T.);
#111=ORIENTED_EDGE('',*,*,#93,.F.);
#112=ORIENTED_EDGE('',*,*,#94,.T.);
#113=ORIENTED_EDGE('',*,*,#95,.T.);
#114=ORIENTED_EDGE('',*,*,#94,.F.);
#115=ORIENTED_EDGE('',*,*,#96,.F.);
#116=ORIENTED_EDGE('',*,*,#97,.T.);
#117=ORIENTED_EDGE('',*,*,#98,.F.);
#118=ORIENTED_EDGE('',*,*,#99,.F.);
#119=ORIENTED_EDGE('',*,*,#100,.F.);
#120=ORIENTED_EDGE('',*,*,#99,.T.);
#121=ORIENTED_EDGE('',*,*,#101,.F.);
#122=ORIENTED_EDGE('',*,*,#102,.F.);
#123=ORIENTED_EDGE('',*,*,#103,.F.);
#124=ORIENTED_EDGE('',*,*,#102,.T.);
#125=ORIENTED_EDGE('',*,*,#104,.F.);
#126=ORIENTED_EDGE('',*,*,#105,.F.);
#127=ORIENTED_EDGE('',*,*,#106,.F.);
#128=ORIENTED_EDGE('',*,*,#105,.T.);
#129=ORIENTED_EDGE('',*,*,#107,.F.);
#130=ORIENTED_EDGE('',*,*,#97,.F.);
#131=ORIENTED_EDGE('',*,*,#107,.T.);
#132=ORIENTED_EDGE('',*,*,#104,.T.);
#133=ORIENTED_EDGE('',*,*,#101,.T.);
#134=ORIENTED_EDGE('',*,*,#98,.T.);
#135=ORIENTED_EDGE('',*,*,#93,.T.);
#136=ORIENTED_EDGE('',*,*,#106,.T.);
#137=ORIENTED_EDGE('',*,*,#96,.T.);
#138=ORIENTED_EDGE('',*,*,#100,.T.);
#139=ORIENTED_EDGE('',*,*,#103,.T.);
#140=ORIENTED_EDGE('',*,*,#95,.F.);
#141=ORIENTED_EDGE('',*,*,#108,.F.);
#142=ORIENTED_EDGE('',*,*,#109,.T.);
#143=ORIENTED_EDGE('',*,*,#110,.T.);
#144=ORIENTED_EDGE('',*,*,#109,.F.);
#145=ORIENTED_EDGE('',*,*,#108,.T.);
#146=ORIENTED_EDGE('',*,*,#110,.F.);
#147=CYLINDRICAL_SURFACE('',#174,10.);
#148=CYLINDRICAL_SURFACE('',#183,10.);
#149=ADVANCED_FACE('',(#27),#147,.F.);
#150=ADVANCED_FACE('',(#28),#19,.T.);
#151=ADVANCED_FACE('',(#29),#20,.T.);
#152=ADVANCED_FACE('',(#30),#21,.T.);
#153=ADVANCED_FACE('',(#31),#22,.T.);
#154=ADVANCED_FACE('',(#32,#17),#23,.T.);
#155=ADVANCED_FACE('',(#33,#18),#24,.F.);
#156=ADVANCED_FACE('',(#34),#148,.T.);
#157=ADVANCED_FACE('',(#35),#25,.T.);
#158=ADVANCED_FACE('',(#36),#26,.F.);
#159=CLOSED_SHELL('',(#149,#150,#151,#152,#153,#154,#155));
#160=CLOSED_SHELL('',(#156,#157,#158));
#161=DERIVED_UNIT_ELEMENT(#163,1.);
#162=DERIVED_UNIT_ELEMENT(#278,-3.);
#163=(
MASS_UNIT()
NAMED_UNIT(*)
SI_UNIT(.KILO.,.GRAM.)
);
#164=DERIVED_UNIT((#161,#162));
#165=MEASURE_REPRESENTATION_ITEM('density measure',
POSITIVE_RATIO_MEASURE(1060.),#164);
#166=PROPERTY_DEFINITION_REPRESENTATION(#171,#168);
#167=PROPERTY_DEFINITION_REPRESENTATION(#172,#169);
#168=REPRESENTATION('material name',(#170),#275);
#169=REPRESENTATION('density',(#165),#275);
#170=DESCRIPTIVE_REPRESENTATION_ITEM('ABS \X2\58516599\X0\',
'ABS \X2\58516599\X0\');
#171=PROPERTY_DEFINITION('material property','material name',#285);
#172=PROPERTY_DEFINITION('material property','density of part',#285);
#173=AXIS2_PLACEMENT_3D('',#232,#188,#189);
#174=AXIS2_PLACEMENT_3D('',#233,#190,#191);
#175=AXIS2_PLACEMENT_3D('',#235,#192,#193);
#176=AXIS2_PLACEMENT_3D('',#238,#195,#196);
#177=AXIS2_PLACEMENT_3D('',#239,#197,#198);
#178=AXIS2_PLACEMENT_3D('',#248,#203,#204);
#179=AXIS2_PLACEMENT_3D('',#254,#208,#209);
#180=AXIS2_PLACEMENT_3D('',#260,#213,#214);
#181=AXIS2_PLACEMENT_3D('',#263,#217,#218);
#182=AXIS2_PLACEMENT_3D('',#264,#219,#220);
#183=AXIS2_PLACEMENT_3D('',#265,#221,#222);
#184=AXIS2_PLACEMENT_3D('',#267,#223,#224);
#185=AXIS2_PLACEMENT_3D('',#270,#226,#227);
#186=AXIS2_PLACEMENT_3D('',#271,#228,#229);
#187=AXIS2_PLACEMENT_3D('',#272,#230,#231);
#188=DIRECTION('axis',(0.,0.,1.));
#189=DIRECTION('refdir',(1.,0.,0.));
#190=DIRECTION('center_axis',(0.,0.,1.));
#191=DIRECTION('ref_axis',(1.,0.,0.));
#192=DIRECTION('center_axis',(0.,0.,-1.));
#193=DIRECTION('ref_axis',(1.,0.,0.));
#194=DIRECTION('',(0.,0.,-1.));
#195=DIRECTION('center_axis',(0.,0.,-1.));
#196=DIRECTION('ref_axis',(1.,0.,0.));
#197=DIRECTION('center_axis',(1.,0.,0.));
#198=DIRECTION('ref_axis',(0.,1.,0.));
#199=DIRECTION('',(0.,-1.,0.));
#200=DIRECTION('',(0.,0.,1.));
#201=DIRECTION('',(0.,1.,0.));
#202=DIRECTION('',(0.,0.,1.));
#203=DIRECTION('center_axis',(0.,-1.,0.));
#204=DIRECTION('ref_axis',(1.,0.,0.));
#205=DIRECTION('',(-1.,0.,0.));
#206=DIRECTION('',(1.,0.,0.));
#207=DIRECTION('',(0.,0.,1.));
#208=DIRECTION('center_axis',(-1.,0.,0.));
#209=DIRECTION('ref_axis',(0.,-1.,0.));
#210=DIRECTION('',(0.,1.,0.));
#211=DIRECTION('',(0.,-1.,0.));
#212=DIRECTION('',(0.,0.,1.));
#213=DIRECTION('center_axis',(0.,1.,0.));
#214=DIRECTION('ref_axis',(-1.,0.,0.));
#215=DIRECTION('',(1.,0.,0.));
#216=DIRECTION('',(-1.,0.,0.));
#217=DIRECTION('center_axis',(0.,0.,1.));
#218=DIRECTION('ref_axis',(1.,0.,0.));
#219=DIRECTION('center_axis',(0.,0.,1.));
#220=DIRECTION('ref_axis',(1.,0.,0.));
#221=DIRECTION('center_axis',(0.,0.,1.));
#222=DIRECTION('ref_axis',(1.,0.,0.));
#223=DIRECTION('center_axis',(0.,0.,1.));
#224=DIRECTION('ref_axis',(1.,0.,0.));
#225=DIRECTION('',(0.,0.,-1.));
#226=DIRECTION('center_axis',(0.,0.,1.));
#227=DIRECTION('ref_axis',(1.,0.,0.));
#228=DIRECTION('center_axis',(0.,0.,1.));
#229=DIRECTION('ref_axis',(1.,0.,0.));
#230=DIRECTION('center_axis',(0.,0.,1.));
#231=DIRECTION('ref_axis',(1.,0.,0.));
#232=CARTESIAN_POINT('',(0.,0.,0.));
#233=CARTESIAN_POINT('Origin',(0.,0.,0.));
#234=CARTESIAN_POINT('',(-10.,-1.22464679914735E-15,10.));
#235=CARTESIAN_POINT('Origin',(0.,0.,10.));
#236=CARTESIAN_POINT('',(-10.,-1.22464679914735E-15,0.));
#237=CARTESIAN_POINT('',(-10.,-1.22464679914735E-15,0.));
#238=CARTESIAN_POINT('Origin',(0.,0.,0.));
#239=CARTESIAN_POINT('Origin',(20.,-20.,0.));
#240=CARTESIAN_POINT('',(20.,20.,0.));
#241=CARTESIAN_POINT('',(20.,-20.,0.));
#242=CARTESIAN_POINT('',(20.,20.,0.));
#243=CARTESIAN_POINT('',(20.,20.,10.));
#244=CARTESIAN_POINT('',(20.,20.,0.));
#245=CARTESIAN_POINT('',(20.,-20.,10.));
#246=CARTESIAN_POINT('',(20.,20.,10.));
#247=CARTESIAN_POINT('',(20.,-20.,0.));
#248=CARTESIAN_POINT('Origin',(-20.,-20.,0.));
#249=CARTESIAN_POINT('',(-20.,-20.,0.));
#250=CARTESIAN_POINT('',(20.,-20.,0.));
#251=CARTESIAN_POINT('',(-20.,-20.,10.));
#252=CARTESIAN_POINT('',(20.,-20.,10.));
#253=CARTESIAN_POINT('',(-20.,-20.,0.));
#254=CARTESIAN_POINT('Origin',(-20.,20.,0.));
#255=CARTESIAN_POINT('',(-20.,20.,0.));
#256=CARTESIAN_POINT('',(-20.,-20.,0.));
#257=CARTESIAN_POINT('',(-20.,20.,10.));
#258=CARTESIAN_POINT('',(-20.,-20.,10.));
#259=CARTESIAN_POINT('',(-20.,20.,0.));
#260=CARTESIAN_POINT('Origin',(20.,20.,0.));
#261=CARTESIAN_POINT('',(-20.,20.,0.));
#262=CARTESIAN_POINT('',(-20.,20.,10.));
#263=CARTESIAN_POINT('Origin',(0.,0.,10.));
#264=CARTESIAN_POINT('Origin',(0.,0.,0.));
#265=CARTESIAN_POINT('Origin',(0.,0.,0.));
#266=CARTESIAN_POINT('',(-10.,-1.22464679914735E-15,15.));
#267=CARTESIAN_POINT('Origin',(0.,0.,15.));
#268=CARTESIAN_POINT('',(-10.,-1.22464679914735E-15,0.));
#269=CARTESIAN_POINT('',(-10.,-1.22464679914735E-15,0.));
#270=CARTESIAN_POINT('Origin',(0.,0.,0.));
#271=CARTESIAN_POINT('Origin',(0.,0.,15.));
#272=CARTESIAN_POINT('Origin',(0.,0.,0.));
#273=UNCERTAINTY_MEASURE_WITH_UNIT(LENGTH_MEASURE(0.01),#277,
'DISTANCE_ACCURACY_VALUE',
'Maximum model space distance between geometric entities at asserted c
onnectivities');
#274=UNCERTAINTY_MEASURE_WITH_UNIT(LENGTH_MEASURE(0.01),#277,
'DISTANCE_ACCURACY_VALUE',
'Maximum model space distance between geometric entities at asserted c
onnectivities');
#275=(
GEOMETRIC_REPRESENTATION_CONTEXT(3)
GLOBAL_UNCERTAINTY_ASSIGNED_CONTEXT((#273))
GLOBAL_UNIT_ASSIGNED_CONTEXT((#277,#279,#280))
REPRESENTATION_CONTEXT('','3D')
);
#276=(
GEOMETRIC_REPRESENTATION_CONTEXT(3)
GLOBAL_UNCERTAINTY_ASSIGNED_CONTEXT((#274))
GLOBAL_UNIT_ASSIGNED_CONTEXT((#277,#279,#280))
REPRESENTATION_CONTEXT('','3D')
);
#277=(
LENGTH_UNIT()
NAMED_UNIT(*)
SI_UNIT(.MILLI.,.METRE.)
);
#278=(
LENGTH_UNIT()
NAMED_UNIT(*)
SI_UNIT($,.METRE.)
);
#279=(
NAMED_UNIT(*)
PLANE_ANGLE_UNIT()
SI_UNIT($,.RADIAN.)
);
#280=(
NAMED_UNIT(*)
SI_UNIT($,.STERADIAN.)
SOLID_ANGLE_UNIT()
);
#281=SHAPE_DEFINITION_REPRESENTATION(#282,#283);
#282=PRODUCT_DEFINITION_SHAPE('',$,#285);
#283=SHAPE_REPRESENTATION('',(#173),#275);
#284=PRODUCT_DEFINITION_CONTEXT('part definition',#289,'design');
#285=PRODUCT_DEFINITION('(\X2\672A4FDD5B58\X0\)','(\X2\672A4FDD5B58\X0\)',
#286,#284);
#286=PRODUCT_DEFINITION_FORMATION('',$,#291);
#287=PRODUCT_RELATED_PRODUCT_CATEGORY('(\X2\672A4FDD5B58\X0\)',
'(\X2\672A4FDD5B58\X0\)',(#291));
#288=APPLICATION_PROTOCOL_DEFINITION('international standard',
'automotive_design',2009,#289);
#289=APPLICATION_CONTEXT(
'Core Data for Automotive Mechanical Design Process');
#290=PRODUCT_CONTEXT('part definition',#289,'mechanical');
#291=PRODUCT('(\X2\672A4FDD5B58\X0\)','(\X2\672A4FDD5B58\X0\)',$,(#290));
#292=PRESENTATION_STYLE_ASSIGNMENT((#293));
#293=SURFACE_STYLE_USAGE(.BOTH.,#294);
#294=SURFACE_SIDE_STYLE('',(#295));
#295=SURFACE_STYLE_FILL_AREA(#296);
#296=FILL_AREA_STYLE('ABS(\X2\767D8272\X0\)',(#297));
#297=FILL_AREA_STYLE_COLOUR('ABS(\X2\767D8272\X0\)',#298);
#298=COLOUR_RGB('ABS(\X2\767D8272\X0\)',0.964705882352941,0.964705882352941,
0.952941176470588);
ENDSEC;
END-ISO-10303-21;
